STARTFONT 2.3
FONT -FontForge-Shadows Into Light-Book-R-Normal--16-160-72-72-P-65-ISO10646-1
SIZE 16 72 72  2
FONTBOUNDINGBOX 23 26 -3 -7
COMMENT "Generated by fontforge, http://fontforge.sourceforge.net"
COMMENT "Copyright (c) 2010, Kimberly Geswein (kimberlygeswein.com)"
STARTPROPERTIES 40
FOUNDRY "FontForge"
FAMILY_NAME "Shadows Into Light"
WEIGHT_NAME "Book"
SLANT "R"
SETWIDTH_NAME "Normal"
ADD_STYLE_NAME ""
PIXEL_SIZE 16
POINT_SIZE 160
RESOLUTION_X 72
RESOLUTION_Y 72
SPACING "P"
AVERAGE_WIDTH 65
CHARSET_REGISTRY "ISO10646"
CHARSET_ENCODING "1"
FONTNAME_REGISTRY ""
CHARSET_COLLECTIONS "ISO8859-2 ISO8859-9 ISO8859-4 ISO10646-1"
BITS_PER_PIXEL 2
FONT_NAME "ShadowsIntoLight"
FACE_NAME "Shadows Into Light"
COPYRIGHT "Copyright (c) 2010, Kimberly Geswein (kimberlygeswein.com)"
FONT_VERSION "001.000"
FONT_ASCENT 13
FONT_DESCENT 3
UNDERLINE_POSITION 0
UNDERLINE_THICKNESS 0
X_HEIGHT 9
CAP_HEIGHT 10
RAW_ASCENT 799
RAW_DESCENT 200
NORM_SPACE 7
RELATIVE_WEIGHT 40
RELATIVE_SETWIDTH 50
SUPERSCRIPT_X 0
SUPERSCRIPT_Y 7
SUPERSCRIPT_SIZE 10
SUBSCRIPT_X 0
SUBSCRIPT_Y 2
SUBSCRIPT_SIZE 10
AVG_LOWERCASE_WIDTH 59
AVG_UPPERCASE_WIDTH 77
ENDPROPERTIES
CHARS 352
STARTCHAR space
ENCODING 32
SWIDTH 450 0
DWIDTH 7 0
BBX 1 1 0 0
BITMAP
00
ENDCHAR
STARTCHAR exclam
ENCODING 33
SWIDTH 137 0
DWIDTH 2 0
BBX 2 14 0 0
BITMAP
40
80
80
80
80
80
80
90
40
00
00
00
00
20
ENDCHAR
STARTCHAR quotedbl
ENCODING 34
SWIDTH 212 0
DWIDTH 3 0
BBX 3 5 0 8
BITMAP
44
58
58
58
14
ENDCHAR
STARTCHAR numbersign
ENCODING 35
SWIDTH 450 0
DWIDTH 7 0
BBX 6 9 1 1
BITMAP
0200
2300
2780
B600
2260
3740
7640
A140
1000
ENDCHAR
STARTCHAR dollar
ENCODING 36
SWIDTH 445 0
DWIDTH 7 0
BBX 7 15 0 -2
BITMAP
0100
0200
0300
0780
2A00
6200
C300
6B90
0208
0260
02C0
0A40
0180
0080
0040
ENDCHAR
STARTCHAR percent
ENCODING 37
SWIDTH 450 0
DWIDTH 7 0
BBX 7 13 0 0
BITMAP
0050
0090
64C0
8580
9540
5200
0200
0228
0528
0838
0810
0400
0400
ENDCHAR
STARTCHAR ampersand
ENCODING 38
SWIDTH 356 0
DWIDTH 6 0
BBX 5 7 0 2
BITMAP
0100
0500
0540
6B80
8A00
AA00
1600
ENDCHAR
STARTCHAR quotesingle
ENCODING 39
SWIDTH 155 0
DWIDTH 2 0
BBX 2 5 0 5
BITMAP
50
60
60
20
10
ENDCHAR
STARTCHAR parenleft
ENCODING 40
SWIDTH 291 0
DWIDTH 5 0
BBX 4 13 0 0
BITMAP
02
05
08
24
20
50
90
80
80
90
60
24
09
ENDCHAR
STARTCHAR parenright
ENCODING 41
SWIDTH 241 0
DWIDTH 4 0
BBX 4 12 0 0
BITMAP
50
24
08
08
05
05
05
05
09
0C
18
10
ENDCHAR
STARTCHAR asterisk
ENCODING 42
SWIDTH 481 0
DWIDTH 8 0
BBX 7 8 0 1
BITMAP
0100
0560
5680
1FA8
6F90
0E24
2600
1100
ENDCHAR
STARTCHAR plus
ENCODING 43
SWIDTH 466 0
DWIDTH 7 0
BBX 7 7 0 2
BITMAP
0100
0500
0500
06A8
6A00
0600
0200
ENDCHAR
STARTCHAR comma
ENCODING 44
SWIDTH 112 0
DWIDTH 2 0
BBX 2 4 0 -2
BITMAP
50
60
50
40
ENDCHAR
STARTCHAR hyphen
ENCODING 45
SWIDTH 399 0
DWIDTH 6 0
BBX 6 2 0 3
BITMAP
02E0
6900
ENDCHAR
STARTCHAR period
ENCODING 46
SWIDTH 128 0
DWIDTH 2 0
BBX 2 1 0 0
BITMAP
50
ENDCHAR
STARTCHAR slash
ENCODING 47
SWIDTH 306 0
DWIDTH 5 0
BBX 5 12 0 -1
BITMAP
0140
0200
0200
0500
0800
0800
1400
2000
2000
5000
9000
8000
ENDCHAR
STARTCHAR zero
ENCODING 48
SWIDTH 308 0
DWIDTH 5 0
BBX 5 9 0 0
BITMAP
0900
2200
5140
5140
5140
5140
5140
2200
1900
ENDCHAR
STARTCHAR one
ENCODING 49
SWIDTH 112 0
DWIDTH 2 0
BBX 2 10 0 0
BITMAP
40
40
50
50
90
90
50
50
50
50
ENDCHAR
STARTCHAR two
ENCODING 50
SWIDTH 512 0
DWIDTH 8 0
BBX 8 9 0 0
BITMAP
0B80
2480
4080
0080
0140
0200
0605
09A8
0900
ENDCHAR
STARTCHAR three
ENCODING 51
SWIDTH 461 0
DWIDTH 7 0
BBX 7 11 0 0
BITMAP
0AC0
6480
4180
0200
0EA4
2808
0008
0018
0060
0180
0600
ENDCHAR
STARTCHAR four
ENCODING 52
SWIDTH 503 0
DWIDTH 8 0
BBX 8 13 0 0
BITMAP
0010
00A0
00E0
02A0
0620
0820
1825
76B5
9420
0020
0020
0020
0020
ENDCHAR
STARTCHAR five
ENCODING 53
SWIDTH 478 0
DWIDTH 8 0
BBX 8 11 0 0
BITMAP
5169
B900
6000
6000
62D0
6820
6020
0090
0180
0300
0500
ENDCHAR
STARTCHAR six
ENCODING 54
SWIDTH 375 0
DWIDTH 6 0
BBX 6 13 0 0
BITMAP
1800
1400
2400
2000
2000
2000
5000
92A0
9510
9840
6480
7640
2D00
ENDCHAR
STARTCHAR seven
ENCODING 55
SWIDTH 458 0
DWIDTH 7 0
BBX 7 12 0 0
BITMAP
05A8
6A68
0030
0020
0050
0090
0080
0080
0080
0080
00C0
0080
ENDCHAR
STARTCHAR eight
ENCODING 56
SWIDTH 333 0
DWIDTH 5 0
BBX 5 11 0 0
BITMAP
0B40
2680
9080
8040
5200
2600
0D00
0A00
1040
2080
1A40
ENDCHAR
STARTCHAR nine
ENCODING 57
SWIDTH 475 0
DWIDTH 8 0
BBX 7 11 0 0
BITMAP
01A0
0934
24A8
6188
8708
A808
1008
0008
0008
0008
0008
ENDCHAR
STARTCHAR colon
ENCODING 58
SWIDTH 120 0
DWIDTH 2 0
BBX 2 5 0 2
BITMAP
40
00
00
00
50
ENDCHAR
STARTCHAR semicolon
ENCODING 59
SWIDTH 121 0
DWIDTH 2 0
BBX 2 7 0 -2
BITMAP
50
00
00
50
60
50
40
ENDCHAR
STARTCHAR less
ENCODING 60
SWIDTH 409 0
DWIDTH 7 0
BBX 6 8 1 2
BITMAP
0090
0280
1D00
6000
C000
7400
0A40
0180
ENDCHAR
STARTCHAR equal
ENCODING 61
SWIDTH 433 0
DWIDTH 7 0
BBX 7 5 0 1
BITMAP
0550
6A40
0054
1A90
5000
ENDCHAR
STARTCHAR greater
ENCODING 62
SWIDTH 450 0
DWIDTH 7 0
BBX 5 9 1 2
BITMAP
4000
A400
1A00
01C0
0080
0240
1D00
7400
8000
ENDCHAR
STARTCHAR question
ENCODING 63
SWIDTH 445 0
DWIDTH 7 0
BBX 7 15 0 0
BITMAP
0590
7958
5008
0024
0060
0180
0600
0C00
0E40
0140
0000
0000
0000
0000
0200
ENDCHAR
STARTCHAR at
ENCODING 64
SWIDTH 945 0
DWIDTH 15 0
BBX 15 15 0 0
BITMAP
00005000
000A5A00
00640140
01800080
06068090
08258050
24538050
30898080
62589180
92A02900
91400000
60000028
300001A0
19001A00
06AA9000
ENDCHAR
STARTCHAR A
ENCODING 65
SWIDTH 390 0
DWIDTH 6 0
BBX 8 12 0 0
BITMAP
1800
2C00
2900
2200
3200
3140
20EA
62D0
7990
6060
5020
4020
ENDCHAR
STARTCHAR B
ENCODING 66
SWIDTH 537 0
DWIDTH 9 0
BBX 8 12 0 0
BITMAP
01A0
5A64
7020
6080
22AA
3B42
2C02
2408
1424
1490
1A40
0400
ENDCHAR
STARTCHAR C
ENCODING 67
SWIDTH 487 0
DWIDTH 8 0
BBX 8 12 0 0
BITMAP
0180
0660
0800
1400
2000
2000
5000
5005
900C
9024
6090
2E40
ENDCHAR
STARTCHAR D
ENCODING 68
SWIDTH 554 0
DWIDTH 9 0
BBX 9 12 0 0
BITMAP
140000
2EA800
680600
180140
180140
180200
080500
080800
082400
089000
064000
050000
ENDCHAR
STARTCHAR E
ENCODING 69
SWIDTH 474 0
DWIDTH 8 0
BBX 7 12 0 0
BITMAP
0050
6680
7800
2000
2010
2190
2900
3400
3018
30A0
3A40
2800
ENDCHAR
STARTCHAR F
ENCODING 70
SWIDTH 428 0
DWIDTH 7 0
BBX 7 11 0 0
BITMAP
5064
AA40
A400
9000
6000
6060
6640
7800
6000
6000
2000
ENDCHAR
STARTCHAR G
ENCODING 71
SWIDTH 591 0
DWIDTH 9 0
BBX 9 13 0 -2
BITMAP
001400
00A400
020000
090000
180140
202B80
200340
500B00
902B00
A5A300
2A4300
000300
000100
ENDCHAR
STARTCHAR H
ENCODING 72
SWIDTH 424 0
DWIDTH 7 0
BBX 7 11 0 0
BITMAP
4040
9050
5060
5020
5060
51A0
6A20
7020
6020
6024
6014
ENDCHAR
STARTCHAR I
ENCODING 73
SWIDTH 153 0
DWIDTH 2 0
BBX 1 12 1 0
BITMAP
80
80
80
80
80
80
80
80
80
80
80
80
ENDCHAR
STARTCHAR J
ENCODING 74
SWIDTH 371 0
DWIDTH 6 0
BBX 6 12 0 -1
BITMAP
0180
0080
0080
00C0
0080
0090
0090
0050
0050
4050
6090
1A80
ENDCHAR
STARTCHAR K
ENCODING 75
SWIDTH 524 0
DWIDTH 8 0
BBX 8 11 0 0
BITMAP
5000
5020
6090
2180
2200
2900
2800
2800
2EAA
1400
1400
ENDCHAR
STARTCHAR L
ENCODING 76
SWIDTH 537 0
DWIDTH 9 0
BBX 9 10 0 0
BITMAP
600000
600000
600000
600000
600000
600000
600140
602900
769000
790000
ENDCHAR
STARTCHAR M
ENCODING 77
SWIDTH 682 0
DWIDTH 11 0
BBX 11 12 0 0
BITMAP
7400C0
6801C0
690290
220250
224650
208950
209820
303420
301020
300020
340024
240024
ENDCHAR
STARTCHAR N
ENCODING 78
SWIDTH 541 0
DWIDTH 9 0
BBX 8 12 0 0
BITMAP
0009
0005
6005
7806
6906
2306
2186
2066
202A
200A
2407
1400
ENDCHAR
STARTCHAR O
ENCODING 79
SWIDTH 382 0
DWIDTH 6 0
BBX 6 11 0 0
BITMAP
0640
1D90
2420
3030
6030
9020
8060
8090
80C0
6240
2D00
ENDCHAR
STARTCHAR P
ENCODING 80
SWIDTH 508 0
DWIDTH 8 0
BBX 8 13 0 0
BITMAP
15A8
390A
7002
2009
2024
21D0
2E00
2400
2400
2400
2400
1400
1400
ENDCHAR
STARTCHAR Q
ENCODING 81
SWIDTH 512 0
DWIDTH 8 0
BBX 8 12 0 0
BITMAP
0EB0
2808
3008
2005
6005
5005
9095
9024
502C
2018
2429
0A81
ENDCHAR
STARTCHAR R
ENCODING 82
SWIDTH 503 0
DWIDTH 8 0
BBX 8 13 0 0
BITMAP
5050
66AD
7406
6018
6090
6A00
7400
7800
5B80
5078
5006
5000
5000
ENDCHAR
STARTCHAR S
ENCODING 83
SWIDTH 541 0
DWIDTH 9 0
BBX 9 12 0 0
BITMAP
006400
065400
180000
200000
900000
800000
600000
1AA900
000640
000A00
01A400
090000
ENDCHAR
STARTCHAR T
ENCODING 84
SWIDTH 595 0
DWIDTH 10 0
BBX 11 12 0 0
BITMAP
001004
05BAA4
A97000
002000
002000
002400
002400
001400
001800
001800
000800
000800
ENDCHAR
STARTCHAR U
ENCODING 85
SWIDTH 450 0
DWIDTH 7 0
BBX 7 12 0 -2
BITMAP
5018
9018
5028
5028
5038
5034
5068
5098
2148
1A08
0008
0004
ENDCHAR
STARTCHAR V
ENCODING 86
SWIDTH 524 0
DWIDTH 8 0
BBX 8 12 0 0
BITMAP
0001
0002
4006
9005
3009
240C
1C18
0918
0624
0270
01F0
00A0
ENDCHAR
STARTCHAR W
ENCODING 87
SWIDTH 878 0
DWIDTH 14 0
BBX 14 12 0 0
BITMAP
00000050
00000090
50070080
60074080
30098140
2408C240
18149200
0C206200
0D202600
0A501D00
07900800
02C00000
ENDCHAR
STARTCHAR X
ENCODING 88
SWIDTH 461 0
DWIDTH 7 0
BBX 7 11 0 0
BITMAP
1008
3024
2420
0C90
0A80
0700
0740
0880
2450
6020
0014
ENDCHAR
STARTCHAR Y
ENCODING 89
SWIDTH 483 0
DWIDTH 8 0
BBX 8 12 0 0
BITMAP
0005
0008
9008
3014
1820
0A20
02D0
00C0
0180
0140
0200
0200
ENDCHAR
STARTCHAR Z
ENCODING 90
SWIDTH 670 0
DWIDTH 11 0
BBX 11 11 0 0
BITMAP
6AAB80
000340
000A00
001800
007000
00D000
024000
0A0000
180000
755550
BFEAA4
ENDCHAR
STARTCHAR bracketleft
ENCODING 91
SWIDTH 470 0
DWIDTH 8 0
BBX 7 20 0 -2
BITMAP
6AA0
9000
5000
5000
5000
5000
2000
2000
2000
2000
2000
2000
2000
2400
1400
1400
1400
1404
1AA4
0900
ENDCHAR
STARTCHAR backslash
ENCODING 92
SWIDTH 554 0
DWIDTH 9 0
BBX 9 16 0 0
BITMAP
900000
200000
140000
080000
090000
020000
024000
018000
009000
006000
002400
001800
000D00
000600
000300
000280
ENDCHAR
STARTCHAR bracketright
ENCODING 93
SWIDTH 512 0
DWIDTH 8 0
BBX 8 21 0 -2
BITMAP
6AA8
540C
000C
000C
000C
000C
000C
000C
0008
0008
0008
0009
0009
0009
0005
0005
0006
0006
0006
006E
0194
ENDCHAR
STARTCHAR asciicircum
ENCODING 94
SWIDTH 390 0
DWIDTH 6 0
BBX 6 5 0 10
BITMAP
0900
1A40
2080
5020
4000
ENDCHAR
STARTCHAR underscore
ENCODING 95
SWIDTH 612 0
DWIDTH 10 0
BBX 10 3 0 0
BITMAP
000590
06BA40
B94000
ENDCHAR
STARTCHAR grave
ENCODING 96
SWIDTH 155 0
DWIDTH 2 0
BBX 2 3 0 9
BITMAP
40
60
10
ENDCHAR
STARTCHAR a
ENCODING 97
SWIDTH 366 0
DWIDTH 6 0
BBX 6 9 0 0
BITMAP
0240
0AC0
18C0
35C0
62C0
9690
8C50
A450
6010
ENDCHAR
STARTCHAR b
ENCODING 98
SWIDTH 442 0
DWIDTH 7 0
BBX 7 14 0 0
BITMAP
1000
6000
6000
6000
6000
6000
62F0
6914
7418
6024
5070
51D0
5B40
7400
ENDCHAR
STARTCHAR c
ENCODING 99
SWIDTH 390 0
DWIDTH 6 0
BBX 6 10 0 0
BITMAP
0500
2A00
3200
6100
5000
9000
9020
5060
6080
2A40
ENDCHAR
STARTCHAR d
ENCODING 100
SWIDTH 316 0
DWIDTH 5 0
BBX 5 15 0 -1
BITMAP
0140
0140
0140
0140
0140
0540
2B40
7140
9140
8240
8240
8240
8940
6440
0040
ENDCHAR
STARTCHAR e
ENCODING 101
SWIDTH 461 0
DWIDTH 7 0
BBX 7 9 0 0
BITMAP
0140
0E90
2890
3A40
B400
A01C
2024
2090
1A40
ENDCHAR
STARTCHAR f
ENCODING 102
SWIDTH 345 0
DWIDTH 6 0
BBX 5 14 0 0
BITMAP
0F00
1D40
1800
1800
2400
2400
2AC0
2900
6400
1400
1800
1800
0800
0800
ENDCHAR
STARTCHAR g
ENCODING 103
SWIDTH 437 0
DWIDTH 7 0
BBX 7 16 0 -7
BITMAP
0190
0AB0
18B0
21B0
6274
9634
9924
7424
0024
0024
0024
0030
0020
0090
0280
1A00
ENDCHAR
STARTCHAR h
ENCODING 104
SWIDTH 466 0
DWIDTH 7 0
BBX 7 12 0 0
BITMAP
5000
5000
5000
5000
50A4
539C
570C
5D0C
680C
740C
600C
5008
ENDCHAR
STARTCHAR i
ENCODING 105
SWIDTH 132 0
DWIDTH 2 0
BBX 2 12 0 0
BITMAP
40
00
00
50
50
50
50
50
50
50
50
50
ENDCHAR
STARTCHAR j
ENCODING 106
SWIDTH 112 0
DWIDTH 2 0
BBX 5 19 -3 -6
BITMAP
0100
0000
0000
0000
0000
0240
0240
0240
0240
0140
0140
0180
0180
0180
0080
0180
9140
2700
0500
ENDCHAR
STARTCHAR k
ENCODING 107
SWIDTH 428 0
DWIDTH 7 0
BBX 7 13 0 -1
BITMAP
2000
6000
6000
6034
60A0
61D0
6340
6A00
7800
7400
9690
9064
4000
ENDCHAR
STARTCHAR l
ENCODING 108
SWIDTH 137 0
DWIDTH 2 0
BBX 2 14 0 0
BITMAP
40
90
50
50
50
50
20
20
20
20
20
20
60
10
ENDCHAR
STARTCHAR m
ENCODING 109
SWIDTH 579 0
DWIDTH 9 0
BBX 9 10 0 0
BITMAP
500000
500000
560A00
6B5B00
6DA600
68A240
34E240
349240
300180
200040
ENDCHAR
STARTCHAR n
ENCODING 110
SWIDTH 483 0
DWIDTH 8 0
BBX 7 10 0 0
BITMAP
0010
91F4
5248
6608
690C
680C
7808
3808
3408
3004
ENDCHAR
STARTCHAR o
ENCODING 111
SWIDTH 266 0
DWIDTH 4 0
BBX 4 9 0 0
BITMAP
28
25
52
92
92
93
96
99
74
ENDCHAR
STARTCHAR p
ENCODING 112
SWIDTH 482 0
DWIDTH 8 0
BBX 8 13 0 -5
BITMAP
91A8
9909
B00C
5024
51D0
6B00
7800
5000
5000
5000
5000
9000
4000
ENDCHAR
STARTCHAR q
ENCODING 113
SWIDTH 408 0
DWIDTH 7 0
BBX 7 13 0 -5
BITMAP
0140
0A90
1890
20A0
50A0
9260
9620
1420
0024
0014
0018
0018
0004
ENDCHAR
STARTCHAR r
ENCODING 114
SWIDTH 396 0
DWIDTH 6 0
BBX 6 8 0 0
BITMAP
92E0
5A00
5C00
2C00
2800
2800
2800
1800
ENDCHAR
STARTCHAR s
ENCODING 115
SWIDTH 366 0
DWIDTH 6 0
BBX 6 9 0 -1
BITMAP
0A80
2400
6000
9140
7AA0
0050
0280
0A00
0400
ENDCHAR
STARTCHAR t
ENCODING 116
SWIDTH 268 0
DWIDTH 4 0
BBX 6 13 -1 -1
BITMAP
0C00
0800
0800
0E90
6E40
6800
0800
0C00
0C00
0C00
0C00
0800
0400
ENDCHAR
STARTCHAR u
ENCODING 117
SWIDTH 387 0
DWIDTH 6 0
BBX 6 8 0 0
BITMAP
5040
5080
5080
5080
60C0
61D0
2390
2D60
ENDCHAR
STARTCHAR v
ENCODING 118
SWIDTH 354 0
DWIDTH 6 0
BBX 6 9 0 0
BITMAP
0040
0090
8090
6090
24C0
18C0
0AC0
03C0
01C0
ENDCHAR
STARTCHAR w
ENCODING 119
SWIDTH 566 0
DWIDTH 9 0
BBX 9 8 0 0
BITMAP
518240
629240
226240
161A40
0F0A40
0B0740
070240
020000
ENDCHAR
STARTCHAR x
ENCODING 120
SWIDTH 454 0
DWIDTH 7 0
BBX 7 11 0 -1
BITMAP
0140
0180
4180
6140
2A40
0B00
0780
0560
0918
0C04
0800
ENDCHAR
STARTCHAR y
ENCODING 121
SWIDTH 363 0
DWIDTH 6 0
BBX 6 14 0 -6
BITMAP
0050
A050
3050
1850
0990
0390
01D0
00D0
0090
0080
0080
0080
0080
0080
ENDCHAR
STARTCHAR z
ENCODING 122
SWIDTH 618 0
DWIDTH 10 0
BBX 10 8 0 0
BITMAP
01B400
6A7000
106000
00C000
018000
020000
061AF0
07A500
ENDCHAR
STARTCHAR braceleft
ENCODING 123
SWIDTH 348 0
DWIDTH 6 0
BBX 6 16 0 -2
BITMAP
0640
1950
2000
2000
1800
0C00
7400
2000
1800
A000
8000
8000
9000
6000
1E00
0100
ENDCHAR
STARTCHAR bar
ENCODING 124
SWIDTH 137 0
DWIDTH 2 0
BBX 2 14 0 0
BITMAP
40
90
50
50
50
50
20
20
20
20
20
20
60
10
ENDCHAR
STARTCHAR braceright
ENCODING 125
SWIDTH 348 0
DWIDTH 6 0
BBX 5 16 0 -2
BITMAP
1000
9900
0300
0200
0200
0800
0A40
0240
0600
0780
00C0
0080
0080
0180
0B00
2800
ENDCHAR
STARTCHAR asciitilde
ENCODING 126
SWIDTH 458 0
DWIDTH 7 0
BBX 7 3 0 9
BITMAP
0400
2724
52E0
ENDCHAR
STARTCHAR nonbreakingspace
ENCODING 160
SWIDTH 450 0
DWIDTH 7 0
BBX 1 1 0 0
BITMAP
00
ENDCHAR
STARTCHAR exclamdown
ENCODING 161
SWIDTH 137 0
DWIDTH 2 0
BBX 2 10 0 -2
BITMAP
10
00
00
00
50
90
80
80
80
40
ENDCHAR
STARTCHAR cent
ENCODING 162
SWIDTH 394 0
DWIDTH 6 0
BBX 6 12 0 -1
BITMAP
0900
0900
2B40
3580
6100
5100
9100
9220
5260
6280
2B40
0200
ENDCHAR
STARTCHAR sterling
ENCODING 163
SWIDTH 539 0
DWIDTH 9 0
BBX 8 11 0 0
BITMAP
0018
0196
0200
0500
5E90
5C00
1800
1800
1800
15B9
1E46
ENDCHAR
STARTCHAR currency
ENCODING 164
SWIDTH 500 0
DWIDTH 8 0
BBX 7 10 0 1
BITMAP
0004
0428
0FF0
0960
0820
0820
0860
1EE0
3160
5000
ENDCHAR
STARTCHAR yen
ENCODING 165
SWIDTH 478 0
DWIDTH 8 0
BBX 6 13 1 0
BITMAP
4060
60D0
3580
2A40
0E00
0900
0500
AFD0
1900
AE80
0900
0900
0500
ENDCHAR
STARTCHAR brokenbar
ENCODING 166
SWIDTH 137 0
DWIDTH 2 0
BBX 2 14 0 0
BITMAP
40
90
50
50
50
10
10
20
20
20
20
20
60
10
ENDCHAR
STARTCHAR section
ENCODING 167
SWIDTH 366 0
DWIDTH 6 0
BBX 6 13 0 -1
BITMAP
0680
2400
5000
8040
AAD0
3490
6180
9740
7EA0
0050
0280
0A00
0400
ENDCHAR
STARTCHAR dieresis
ENCODING 168
SWIDTH 306 0
DWIDTH 5 0
BBX 3 1 1 11
BITMAP
88
ENDCHAR
STARTCHAR copyright
ENCODING 169
SWIDTH 485 0
DWIDTH 8 0
BBX 8 11 0 0
BITMAP
01A0
0A58
1949
26C9
6906
5809
882D
86BC
8164
6190
2E40
ENDCHAR
STARTCHAR ordfeminine
ENCODING 170
SWIDTH 227 0
DWIDTH 4 0
BBX 4 4 0 2
BITMAP
28
58
94
91
ENDCHAR
STARTCHAR guillemotleft
ENCODING 171
SWIDTH 652 0
DWIDTH 10 0
BBX 9 8 1 2
BITMAP
009240
029D00
1D7400
628000
C30000
75D000
0A6D00
018600
ENDCHAR
STARTCHAR logicalnot
ENCODING 172
SWIDTH 539 0
DWIDTH 9 0
BBX 7 5 1 2
BITMAP
0154
AAA8
0008
0008
0008
ENDCHAR
STARTCHAR uni00AD
ENCODING 173
SWIDTH 399 0
DWIDTH 6 0
BBX 6 2 0 3
BITMAP
02E0
6900
ENDCHAR
STARTCHAR registered
ENCODING 174
SWIDTH 382 0
DWIDTH 6 0
BBX 8 11 0 0
BITMAP
0190
0AB4
1408
2AA9
6865
5A86
8A49
886C
8418
6060
2F80
ENDCHAR
STARTCHAR macron
ENCODING 175
SWIDTH 399 0
DWIDTH 6 0
BBX 6 2 0 10
BITMAP
5AA0
5400
ENDCHAR
STARTCHAR degree
ENCODING 176
SWIDTH 201 0
DWIDTH 3 0
BBX 3 3 0 6
BITMAP
24
88
64
ENDCHAR
STARTCHAR plusminus
ENCODING 177
SWIDTH 466 0
DWIDTH 7 0
BBX 6 8 0 1
BITMAP
0100
0500
0500
06A0
6A00
0600
0250
2A90
ENDCHAR
STARTCHAR twosuperior
ENCODING 178
SWIDTH 318 0
DWIDTH 5 0
BBX 5 5 0 2
BITMAP
2800
4400
0400
1440
2500
ENDCHAR
STARTCHAR threesuperior
ENCODING 179
SWIDTH 280 0
DWIDTH 4 0
BBX 4 7 0 3
BITMAP
04
58
04
25
01
05
14
ENDCHAR
STARTCHAR acute
ENCODING 180
SWIDTH 155 0
DWIDTH 2 0
BBX 2 3 0 9
BITMAP
10
70
40
ENDCHAR
STARTCHAR mu
ENCODING 181
SWIDTH 387 0
DWIDTH 6 0
BBX 6 11 0 -2
BITMAP
4040
5090
9090
9090
90D0
A1D0
A3D0
BD50
9000
8000
8000
ENDCHAR
STARTCHAR paragraph
ENCODING 182
SWIDTH 447 0
DWIDTH 7 0
BBX 7 11 0 0
BITMAP
0040
2FF0
7F94
BF94
64D4
00D4
00D4
00D4
0094
0094
0084
ENDCHAR
STARTCHAR periodcentered
ENCODING 183
SWIDTH 128 0
DWIDTH 2 0
BBX 2 2 0 3
BITMAP
50
40
ENDCHAR
STARTCHAR cedilla
ENCODING 184
SWIDTH 322 0
DWIDTH 5 0
BBX 4 6 1 -5
BITMAP
40
80
E0
1D
1A
A8
ENDCHAR
STARTCHAR onesuperior
ENCODING 185
SWIDTH 112 0
DWIDTH 2 0
BBX 2 6 0 2
BITMAP
40
40
80
80
50
50
ENDCHAR
STARTCHAR ordmasculine
ENCODING 186
SWIDTH 212 0
DWIDTH 3 0
BBX 4 5 0 2
BITMAP
10
58
85
88
A4
ENDCHAR
STARTCHAR guillemotright
ENCODING 187
SWIDTH 625 0
DWIDTH 10 0
BBX 8 9 1 2
BITMAP
4200
A6D0
1A69
01C7
0082
0258
1D74
7680
8600
ENDCHAR
STARTCHAR onequarter
ENCODING 188
SWIDTH 678 0
DWIDTH 11 0
BBX 10 12 0 -1
BITMAP
008000
014000
020100
420340
460A40
892640
885250
59D650
640240
200240
200140
500000
ENDCHAR
STARTCHAR onehalf
ENCODING 189
SWIDTH 693 0
DWIDTH 11 0
BBX 9 12 1 -1
BITMAP
018000
424000
420000
420000
456000
4A5400
491400
542000
202000
205640
509400
800000
ENDCHAR
STARTCHAR threequarters
ENCODING 190
SWIDTH 868 0
DWIDTH 14 0
BBX 11 12 0 -1
BITMAP
000080
1A4090
5101A0
0502E0
1D5360
002720
006D78
019D20
061820
002420
002020
002000
ENDCHAR
STARTCHAR questiondown
ENCODING 191
SWIDTH 541 0
DWIDTH 9 0
BBX 7 14 1 -1
BITMAP
0140
0000
0000
0000
0000
0A80
0090
0180
0700
1800
2000
9004
65A4
1500
ENDCHAR
STARTCHAR Agrave
ENCODING 192
SWIDTH 390 0
DWIDTH 6 0
BBX 8 14 0 0
BITMAP
0800
0900
1900
1D00
1A00
2600
2540
2080
30EA
31D0
3950
2020
6020
5014
ENDCHAR
STARTCHAR Aacute
ENCODING 193
SWIDTH 390 0
DWIDTH 6 0
BBX 8 15 0 0
BITMAP
0400
2800
1000
1800
2C00
2900
2200
3200
3140
20EA
62D0
7990
6060
5020
4020
ENDCHAR
STARTCHAR Acircumflex
ENCODING 194
SWIDTH 390 0
DWIDTH 6 0
BBX 9 16 -1 0
BITMAP
090000
0A4000
209000
602000
060000
0B0000
0A4000
088000
0C8000
0C5000
083A80
18B400
1E6400
181800
140800
100800
ENDCHAR
STARTCHAR Atilde
ENCODING 195
SWIDTH 390 0
DWIDTH 6 0
BBX 8 17 0 0
BITMAP
1400
DC60
4780
0000
0000
1800
2C00
2900
2200
3200
3140
20EA
62D0
7990
6060
5020
4020
ENDCHAR
STARTCHAR Adieresis
ENCODING 196
SWIDTH 390 0
DWIDTH 6 0
BBX 8 14 0 0
BITMAP
2200
0000
1800
2C00
2900
2200
3200
3140
20EA
62D0
7990
6060
5020
4020
ENDCHAR
STARTCHAR Aring
ENCODING 197
SWIDTH 390 0
DWIDTH 6 0
BBX 8 14 0 0
BITMAP
A900
C600
6800
2C00
2900
2200
3200
3140
20EA
62D0
7990
6060
5020
4020
ENDCHAR
STARTCHAR AE
ENCODING 198
SWIDTH 708 0
DWIDTH 11 0
BBX 11 12 0 0
BITMAP
184060
2CAB40
297400
226000
326010
31A180
20F900
62F000
79B018
607090
503A40
402400
ENDCHAR
STARTCHAR Ccedilla
ENCODING 199
SWIDTH 487 0
DWIDTH 8 0
BBX 8 17 0 -5
BITMAP
0180
0660
0800
1400
2000
2000
5000
5005
900C
9024
6090
2E40
0900
0A00
02D0
0070
06E0
ENDCHAR
STARTCHAR Egrave
ENCODING 200
SWIDTH 474 0
DWIDTH 8 0
BBX 7 15 0 0
BITMAP
0800
0900
0100
0050
6680
7800
2000
2010
2190
2900
3400
3018
30A0
3A40
2800
ENDCHAR
STARTCHAR Eacute
ENCODING 201
SWIDTH 474 0
DWIDTH 8 0
BBX 7 14 0 0
BITMAP
0040
0240
0150
6680
7800
2000
2010
2190
2900
3400
3018
30A0
3A40
2800
ENDCHAR
STARTCHAR Ecircumflex
ENCODING 202
SWIDTH 474 0
DWIDTH 8 0
BBX 7 17 0 0
BITMAP
0240
0580
0820
1418
1000
0050
6680
7800
2000
2010
2190
2900
3400
3018
30A0
3A40
2800
ENDCHAR
STARTCHAR Edieresis
ENCODING 203
SWIDTH 474 0
DWIDTH 8 0
BBX 7 14 0 0
BITMAP
0880
0000
0050
6680
7800
2000
2010
2190
2900
3400
3018
30A0
3A40
2800
ENDCHAR
STARTCHAR Igrave
ENCODING 204
SWIDTH 153 0
DWIDTH 2 0
BBX 2 15 0 0
BITMAP
40
60
10
20
20
20
20
20
20
20
20
20
20
20
20
ENDCHAR
STARTCHAR Iacute
ENCODING 205
SWIDTH 153 0
DWIDTH 2 0
BBX 3 15 0 0
BITMAP
14
34
50
20
20
20
20
20
20
20
20
20
20
20
20
ENDCHAR
STARTCHAR Icircumflex
ENCODING 206
SWIDTH 153 0
DWIDTH 2 0
BBX 6 16 -1 0
BITMAP
1800
2600
5140
8090
0800
0800
0800
0800
0800
0800
0800
0800
0800
0800
0800
0800
ENDCHAR
STARTCHAR Idieresis
ENCODING 207
SWIDTH 153 0
DWIDTH 2 0
BBX 3 14 0 0
BITMAP
88
00
20
20
20
20
20
20
20
20
20
20
20
20
ENDCHAR
STARTCHAR Eth
ENCODING 208
SWIDTH 554 0
DWIDTH 9 0
BBX 9 12 0 0
BITMAP
140000
2EA800
680600
180140
180140
180200
180500
090800
6E6400
089000
064000
050000
ENDCHAR
STARTCHAR Ntilde
ENCODING 209
SWIDTH 541 0
DWIDTH 9 0
BBX 8 16 0 0
BITMAP
0500
3728
51E0
0000
0009
0005
6005
7806
6906
2306
2186
2066
202A
200A
2407
1400
ENDCHAR
STARTCHAR Ograve
ENCODING 210
SWIDTH 382 0
DWIDTH 6 0
BBX 6 14 0 0
BITMAP
0100
0180
0040
0640
1D90
2420
3030
6030
9020
8060
8090
80C0
6240
2D00
ENDCHAR
STARTCHAR Oacute
ENCODING 211
SWIDTH 382 0
DWIDTH 6 0
BBX 6 14 0 0
BITMAP
0100
0A00
0400
0640
1D90
2420
3030
6030
9020
8060
8090
80C0
6240
2D00
ENDCHAR
STARTCHAR Ocircumflex
ENCODING 212
SWIDTH 382 0
DWIDTH 6 0
BBX 6 15 0 0
BITMAP
0900
1A00
2080
5060
4640
1D90
2420
3030
6030
9020
8060
8090
80C0
6240
2D00
ENDCHAR
STARTCHAR Otilde
ENCODING 213
SWIDTH 382 0
DWIDTH 6 0
BBX 7 15 0 0
BITMAP
0500
3728
11E0
0000
0640
1D90
2420
3030
6030
9020
8060
8090
80C0
6240
2D00
ENDCHAR
STARTCHAR Odieresis
ENCODING 214
SWIDTH 382 0
DWIDTH 6 0
BBX 6 13 0 0
BITMAP
0950
0000
0640
1D90
2420
3030
6030
9020
8060
8090
80C0
6240
2D00
ENDCHAR
STARTCHAR multiply
ENCODING 215
SWIDTH 454 0
DWIDTH 7 0
BBX 5 6 1 2
BITMAP
4000
5240
2A00
1C00
6600
4200
ENDCHAR
STARTCHAR Oslash
ENCODING 216
SWIDTH 382 0
DWIDTH 6 0
BBX 6 12 0 -1
BITMAP
06C0
1DD0
25A0
3230
6230
9520
8960
8890
98C0
7640
3D00
2000
ENDCHAR
STARTCHAR Ugrave
ENCODING 217
SWIDTH 450 0
DWIDTH 7 0
BBX 7 15 0 -2
BITMAP
0500
0600
0100
5018
9018
5028
5028
5038
5034
5068
5098
2148
1A08
0008
0004
ENDCHAR
STARTCHAR Uacute
ENCODING 218
SWIDTH 450 0
DWIDTH 7 0
BBX 7 14 0 -2
BITMAP
0040
0280
5118
9018
5028
5028
5038
5034
5068
5098
2148
1A08
0008
0004
ENDCHAR
STARTCHAR Ucircumflex
ENCODING 219
SWIDTH 450 0
DWIDTH 7 0
BBX 7 17 0 -2
BITMAP
0600
0980
1450
2024
1000
5018
9018
5028
5028
5038
5034
5068
5098
2148
1A08
0008
0004
ENDCHAR
STARTCHAR Udieresis
ENCODING 220
SWIDTH 450 0
DWIDTH 7 0
BBX 7 14 0 -2
BITMAP
0880
0000
5018
9018
5028
5028
5038
5034
5068
5098
2148
1A08
0008
0004
ENDCHAR
STARTCHAR Yacute
ENCODING 221
SWIDTH 483 0
DWIDTH 8 0
BBX 8 16 0 0
BITMAP
0050
01C0
0140
0000
0005
0008
9008
3014
1820
0A20
02D0
00C0
0180
0140
0200
0200
ENDCHAR
STARTCHAR Thorn
ENCODING 222
SWIDTH 398 0
DWIDTH 6 0
BBX 6 13 0 0
BITMAP
6000
6000
5140
6AA0
7420
6030
5060
5090
9600
B400
9000
5000
5000
ENDCHAR
STARTCHAR germandbls
ENCODING 223
SWIDTH 537 0
DWIDTH 9 0
BBX 8 12 0 0
BITMAP
01A0
5A64
7020
6080
22AA
3B42
2C02
2408
1424
1490
1A40
0400
ENDCHAR
STARTCHAR agrave
ENCODING 224
SWIDTH 366 0
DWIDTH 6 0
BBX 6 12 0 0
BITMAP
0400
0900
0100
0240
0AC0
18C0
35C0
62C0
9690
8C50
A450
6010
ENDCHAR
STARTCHAR aacute
ENCODING 225
SWIDTH 366 0
DWIDTH 6 0
BBX 6 12 0 0
BITMAP
0100
0700
0400
0240
0AC0
18C0
35C0
62C0
9690
8C50
A450
6010
ENDCHAR
STARTCHAR acircumflex
ENCODING 226
SWIDTH 366 0
DWIDTH 6 0
BBX 6 15 0 0
BITMAP
0900
1600
2080
9060
4000
0000
0240
0AC0
18C0
35C0
62C0
9690
8C50
A450
6010
ENDCHAR
STARTCHAR atilde
ENCODING 227
SWIDTH 366 0
DWIDTH 6 0
BBX 7 13 0 0
BITMAP
1400
6A34
42E0
0000
0240
0AC0
18C0
35C0
62C0
9690
8C50
A450
6010
ENDCHAR
STARTCHAR adieresis
ENCODING 228
SWIDTH 366 0
DWIDTH 6 0
BBX 6 12 0 0
BITMAP
1540
0000
0000
0240
0AC0
18C0
35C0
62C0
9690
8C50
A450
6010
ENDCHAR
STARTCHAR aring
ENCODING 229
SWIDTH 366 0
DWIDTH 6 0
BBX 6 11 0 0
BITMAP
0A80
24C0
1AC0
0AC0
18C0
35C0
62C0
9690
8C50
A450
6010
ENDCHAR
STARTCHAR ae
ENCODING 230
SWIDTH 705 0
DWIDTH 11 0
BBX 11 9 0 0
BITMAP
024780
0AD860
18E580
35FD00
62E008
96A028
8C6060
A47680
601500
ENDCHAR
STARTCHAR ccedilla
ENCODING 231
SWIDTH 390 0
DWIDTH 6 0
BBX 6 15 0 -5
BITMAP
0500
2A00
3200
6100
5000
9000
9020
5060
6080
2E40
1800
1D00
0680
01D0
0A40
ENDCHAR
STARTCHAR egrave
ENCODING 232
SWIDTH 461 0
DWIDTH 7 0
BBX 7 12 0 0
BITMAP
0500
0300
0100
0140
0E90
2890
3A40
B400
A01C
2024
2090
1A40
ENDCHAR
STARTCHAR eacute
ENCODING 233
SWIDTH 461 0
DWIDTH 7 0
BBX 7 12 0 0
BITMAP
0040
0280
0100
0140
0E90
2890
3A40
B400
A01C
2024
2090
1A40
ENDCHAR
STARTCHAR ecircumflex
ENCODING 234
SWIDTH 461 0
DWIDTH 7 0
BBX 7 15 0 0
BITMAP
0600
0980
1860
2024
1000
0000
0140
0E90
2890
3A40
B400
A01C
2024
2090
1A40
ENDCHAR
STARTCHAR edieresis
ENCODING 235
SWIDTH 461 0
DWIDTH 7 0
BBX 7 12 0 0
BITMAP
0990
0000
0000
0140
0E90
2890
3A40
B400
A01C
2024
2090
1A40
ENDCHAR
STARTCHAR igrave
ENCODING 236
SWIDTH 132 0
DWIDTH 2 0
BBX 2 13 0 0
BITMAP
80
90
00
00
50
50
50
50
50
50
50
50
50
ENDCHAR
STARTCHAR iacute
ENCODING 237
SWIDTH 132 0
DWIDTH 2 0
BBX 2 13 0 0
BITMAP
30
50
00
00
50
50
50
50
50
50
50
50
50
ENDCHAR
STARTCHAR icircumflex
ENCODING 238
SWIDTH 132 0
DWIDTH 2 0
BBX 6 15 -2 0
BITMAP
0900
1A00
2080
5060
4000
0000
0500
0500
0500
0500
0500
0500
0500
0500
0500
ENDCHAR
STARTCHAR idieresis
ENCODING 239
SWIDTH 132 0
DWIDTH 2 0
BBX 4 12 -1 0
BITMAP
66
00
00
14
14
14
14
14
14
14
14
14
ENDCHAR
STARTCHAR eth
ENCODING 240
SWIDTH 481 0
DWIDTH 8 0
BBX 7 10 1 0
BITMAP
0800
0900
0214
2F90
0080
7880
9A80
82C0
8240
2E00
ENDCHAR
STARTCHAR ntilde
ENCODING 241
SWIDTH 483 0
DWIDTH 8 0
BBX 7 14 0 0
BITMAP
0500
2A5C
10F4
0000
0010
91F4
5248
6608
690C
680C
7808
3808
3408
3004
ENDCHAR
STARTCHAR ograve
ENCODING 242
SWIDTH 266 0
DWIDTH 4 0
BBX 4 12 0 0
BITMAP
20
24
04
28
25
52
92
92
93
96
99
74
ENDCHAR
STARTCHAR oacute
ENCODING 243
SWIDTH 266 0
DWIDTH 4 0
BBX 4 12 0 0
BITMAP
05
0C
14
28
25
52
92
92
93
96
99
74
ENDCHAR
STARTCHAR ocircumflex
ENCODING 244
SWIDTH 266 0
DWIDTH 4 0
BBX 6 15 -1 0
BITMAP
0900
1A40
2080
5020
4000
0000
0A00
0940
1480
2480
2480
24C0
2580
2640
1D00
ENDCHAR
STARTCHAR otilde
ENCODING 245
SWIDTH 266 0
DWIDTH 4 0
BBX 7 13 -1 0
BITMAP
1400
6724
52E0
0000
0A00
0940
1480
2480
2480
24C0
2580
2640
1D00
ENDCHAR
STARTCHAR odieresis
ENCODING 246
SWIDTH 266 0
DWIDTH 4 0
BBX 4 12 0 0
BITMAP
66
00
00
28
25
52
92
92
93
96
99
74
ENDCHAR
STARTCHAR divide
ENCODING 247
SWIDTH 345 0
DWIDTH 6 0
BBX 5 5 0 2
BITMAP
0800
0040
6A80
0000
0400
ENDCHAR
STARTCHAR oslash
ENCODING 248
SWIDTH 266 0
DWIDTH 4 0
BBX 4 10 0 -1
BITMAP
2A
2A
56
9A
9A
A7
A6
A9
B4
80
ENDCHAR
STARTCHAR ugrave
ENCODING 249
SWIDTH 387 0
DWIDTH 6 0
BBX 6 12 0 0
BITMAP
0800
0900
0100
0000
5040
5080
5080
5080
60C0
61D0
2390
2D60
ENDCHAR
STARTCHAR uacute
ENCODING 250
SWIDTH 387 0
DWIDTH 6 0
BBX 6 12 0 0
BITMAP
0140
0700
0500
0000
5040
5080
5080
5080
60C0
61D0
2390
2D60
ENDCHAR
STARTCHAR ucircumflex
ENCODING 251
SWIDTH 387 0
DWIDTH 6 0
BBX 6 15 0 0
BITMAP
0900
1A40
2080
5020
4000
0000
0000
5040
5080
5080
5080
60C0
61D0
2390
2D60
ENDCHAR
STARTCHAR udieresis
ENCODING 252
SWIDTH 387 0
DWIDTH 6 0
BBX 6 12 0 0
BITMAP
1980
0000
0000
0000
5040
5080
5080
5080
60C0
61D0
2390
2D60
ENDCHAR
STARTCHAR yacute
ENCODING 253
SWIDTH 363 0
DWIDTH 6 0
BBX 6 18 0 -6
BITMAP
0100
0600
0400
0000
0050
A050
3050
1850
0990
0390
01D0
00D0
0090
0080
0080
0080
0080
0080
ENDCHAR
STARTCHAR thorn
ENCODING 254
SWIDTH 439 0
DWIDTH 7 0
BBX 7 11 0 0
BITMAP
4000
91A0
6918
6014
5060
5180
6A00
7400
6000
5000
5000
ENDCHAR
STARTCHAR ydieresis
ENCODING 255
SWIDTH 363 0
DWIDTH 6 0
BBX 6 18 0 -6
BITMAP
2540
0000
0000
0000
0050
A050
3050
1850
0990
0390
01D0
00D0
0090
0080
0080
0080
0080
0080
ENDCHAR
STARTCHAR Amacron
ENCODING 256
SWIDTH 390 0
DWIDTH 6 0
BBX 8 14 0 0
BITMAP
5AA0
5000
1800
2C00
2900
2200
3200
3140
20EA
62D0
7990
6060
5020
4020
ENDCHAR
STARTCHAR amacron
ENCODING 257
SWIDTH 366 0
DWIDTH 6 0
BBX 6 12 0 0
BITMAP
5AA0
5000
0000
0240
0AC0
18C0
35C0
62C0
9690
8C50
A450
6010
ENDCHAR
STARTCHAR Abreve
ENCODING 258
SWIDTH 390 0
DWIDTH 6 0
BBX 8 16 0 0
BITMAP
1080
2B40
0500
0000
1800
2C00
2900
2200
3200
3140
20EA
62D0
7990
6060
5020
4020
ENDCHAR
STARTCHAR abreve
ENCODING 259
SWIDTH 366 0
DWIDTH 6 0
BBX 6 12 0 0
BITMAP
1080
1A80
0500
0240
0AC0
18C0
35C0
62C0
9690
8C50
A450
6010
ENDCHAR
STARTCHAR Aogonek
ENCODING 260
SWIDTH 390 0
DWIDTH 6 0
BBX 8 16 0 -4
BITMAP
1800
2C00
2900
2200
3200
3140
20EA
62D0
7990
6060
5020
4020
0060
00C0
00C5
0079
ENDCHAR
STARTCHAR aogonek
ENCODING 261
SWIDTH 366 0
DWIDTH 6 0
BBX 7 13 0 -4
BITMAP
0240
0AC0
18C0
35C0
62C0
9690
8C50
A450
6090
0180
0240
01AC
0050
ENDCHAR
STARTCHAR Cacute
ENCODING 262
SWIDTH 487 0
DWIDTH 8 0
BBX 8 15 0 0
BITMAP
0040
0280
0100
0180
0660
0800
1400
2000
2000
5000
5005
900C
9024
6090
2E40
ENDCHAR
STARTCHAR cacute
ENCODING 263
SWIDTH 390 0
DWIDTH 6 0
BBX 6 13 0 0
BITMAP
0100
0A00
0400
0500
2A00
3200
6100
5000
9000
9020
5060
6080
2A40
ENDCHAR
STARTCHAR Ccircumflex
ENCODING 264
SWIDTH 487 0
DWIDTH 8 0
BBX 8 16 0 0
BITMAP
0200
0980
0860
2018
1180
0660
0800
1400
2000
2000
5000
5005
900C
9024
6090
2E40
ENDCHAR
STARTCHAR ccircumflex
ENCODING 265
SWIDTH 390 0
DWIDTH 6 0
BBX 6 15 0 0
BITMAP
0900
1A40
2080
5020
4000
0500
2A00
3200
6100
5000
9000
9020
5060
6080
2A40
ENDCHAR
STARTCHAR Cdotaccent
ENCODING 266
SWIDTH 487 0
DWIDTH 8 0
BBX 8 14 0 0
BITMAP
0240
0100
0180
0660
0800
1400
2000
2000
5000
5005
900C
9024
6090
2E40
ENDCHAR
STARTCHAR cdotaccent
ENCODING 267
SWIDTH 390 0
DWIDTH 6 0
BBX 6 11 0 0
BITMAP
0800
0500
2A00
3200
6100
5000
9000
8020
9060
6080
2A40
ENDCHAR
STARTCHAR Ccaron
ENCODING 268
SWIDTH 487 0
DWIDTH 8 0
BBX 8 15 0 0
BITMAP
1004
0860
0640
0180
0660
0800
1400
2000
2000
5000
5005
900C
9024
6090
2E40
ENDCHAR
STARTCHAR ccaron
ENCODING 269
SWIDTH 390 0
DWIDTH 6 0
BBX 6 13 0 0
BITMAP
5010
2080
0A00
0500
2A00
3200
6100
5000
9000
9020
5060
6080
2A40
ENDCHAR
STARTCHAR Dcaron
ENCODING 270
SWIDTH 554 0
DWIDTH 9 0
BBX 9 15 0 0
BITMAP
080400
061400
019000
140000
2EA800
680600
180140
180140
180200
080500
080800
082400
089000
064000
050000
ENDCHAR
STARTCHAR Emacron
ENCODING 274
SWIDTH 474 0
DWIDTH 8 0
BBX 7 14 0 0
BITMAP
1AA4
1400
0050
6680
7800
2000
2010
2190
2900
3400
3018
30A0
3A40
2800
ENDCHAR
STARTCHAR emacron
ENCODING 275
SWIDTH 461 0
DWIDTH 7 0
BBX 7 12 0 0
BITMAP
16A4
1400
0000
0140
0E90
2890
3A40
B400
A01C
2024
2090
1A40
ENDCHAR
STARTCHAR Ebreve
ENCODING 276
SWIDTH 474 0
DWIDTH 8 0
BBX 7 15 0 0
BITMAP
0420
0AD0
0140
0050
6680
7800
2000
2010
2190
2900
3400
3018
30A0
3A40
2800
ENDCHAR
STARTCHAR ebreve
ENCODING 277
SWIDTH 461 0
DWIDTH 7 0
BBX 7 12 0 0
BITMAP
0420
0AD0
0140
0140
0E90
2890
3A40
B400
A01C
2024
2090
1A40
ENDCHAR
STARTCHAR Edotaccent
ENCODING 278
SWIDTH 474 0
DWIDTH 8 0
BBX 7 13 0 0
BITMAP
0600
0050
6680
7800
2000
2010
2190
2900
3400
3018
30A0
3A40
2800
ENDCHAR
STARTCHAR edotaccent
ENCODING 279
SWIDTH 461 0
DWIDTH 7 0
BBX 7 10 0 0
BITMAP
0240
0240
0E90
2890
3A40
B400
A01C
2024
2090
1A40
ENDCHAR
STARTCHAR Eogonek
ENCODING 280
SWIDTH 474 0
DWIDTH 8 0
BBX 7 14 0 -2
BITMAP
0050
6680
7800
2000
2010
2190
2900
3400
3018
30A0
3B80
2A40
02A8
0050
ENDCHAR
STARTCHAR eogonek
ENCODING 281
SWIDTH 461 0
DWIDTH 7 0
BBX 7 13 0 -4
BITMAP
0140
0E90
2890
3A40
B400
A01C
2024
2090
1B40
0900
0C00
0AE0
0100
ENDCHAR
STARTCHAR Ecaron
ENCODING 282
SWIDTH 474 0
DWIDTH 8 0
BBX 7 15 0 0
BITMAP
2010
1490
0A40
0050
6680
7800
2000
2010
2190
2900
3400
3018
30A0
3A40
2800
ENDCHAR
STARTCHAR ecaron
ENCODING 283
SWIDTH 461 0
DWIDTH 7 0
BBX 7 13 0 0
BITMAP
2010
1850
0640
0000
0140
0E90
2890
3A40
B400
A01C
2024
2090
1A40
ENDCHAR
STARTCHAR Gcircumflex
ENCODING 284
SWIDTH 591 0
DWIDTH 9 0
BBX 9 17 0 -2
BITMAP
008000
026000
061800
080900
041400
00A400
020000
090000
180140
202B80
200340
500B00
902B00
A5A300
2A4300
000300
000100
ENDCHAR
STARTCHAR gcircumflex
ENCODING 285
SWIDTH 437 0
DWIDTH 7 0
BBX 7 22 0 -7
BITMAP
0600
0980
1490
2024
0000
0000
0190
0AB0
18B0
21B0
6274
9634
9924
7424
0024
0024
0024
0030
0020
0090
0280
1A00
ENDCHAR
STARTCHAR Gbreve
ENCODING 286
SWIDTH 591 0
DWIDTH 9 0
BBX 9 15 0 -2
BITMAP
010800
01A800
006400
00A400
020000
090000
180140
202B80
200340
500B00
902B00
A5A300
2A4300
000300
000100
ENDCHAR
STARTCHAR gbreve
ENCODING 287
SWIDTH 437 0
DWIDTH 7 0
BBX 7 20 0 -7
BITMAP
0450
0AD0
0100
0000
0190
0AB0
18B0
21B0
6274
9634
9924
7424
0024
0024
0024
0030
0020
0090
0280
1A00
ENDCHAR
STARTCHAR Gdotaccent
ENCODING 288
SWIDTH 591 0
DWIDTH 9 0
BBX 9 15 0 -2
BITMAP
005000
000000
001400
00A400
024000
050000
080140
141B80
200240
200740
501E40
65A240
1A4240
000240
000140
ENDCHAR
STARTCHAR gdotaccent
ENCODING 289
SWIDTH 437 0
DWIDTH 7 0
BBX 7 18 0 -7
BITMAP
0080
0000
0190
0AB0
18B0
21B0
6274
9634
9924
7424
0024
0024
0024
0030
0020
0090
0280
1A00
ENDCHAR
STARTCHAR Gcommaaccent
ENCODING 290
SWIDTH 591 0
DWIDTH 9 0
BBX 9 16 0 -5
BITMAP
001400
00A400
020000
090000
180140
202B80
200340
500B00
902B00
A5A300
2A4300
000300
004100
00D000
008000
008000
ENDCHAR
STARTCHAR Hcircumflex
ENCODING 292
SWIDTH 424 0
DWIDTH 7 0
BBX 7 16 0 0
BITMAP
0900
1A40
2080
5020
4000
4040
9050
5060
5020
5060
51A0
6A20
7020
6020
6024
6014
ENDCHAR
STARTCHAR hcircumflex
ENCODING 293
SWIDTH 466 0
DWIDTH 7 0
BBX 8 15 0 0
BITMAP
0080
0160
0208
5906
5400
5000
5000
50A4
539C
570C
5D0C
680C
740C
600C
5008
ENDCHAR
STARTCHAR Hbar
ENCODING 294
SWIDTH 424 0
DWIDTH 7 0
BBX 7 11 0 0
BITMAP
4040
9050
5060
AAF0
5060
61A0
6A20
7020
6020
6024
6014
ENDCHAR
STARTCHAR hbar
ENCODING 295
SWIDTH 466 0
DWIDTH 7 0
BBX 8 12 -1 0
BITMAP
1400
1400
1400
2AA0
6969
14E7
15C3
1743
1A03
1D03
1803
1402
ENDCHAR
STARTCHAR Itilde
ENCODING 296
SWIDTH 153 0
DWIDTH 2 0
BBX 7 16 -2 0
BITMAP
1400
6A34
42D0
0000
0200
0200
0200
0200
0200
0200
0200
0200
0200
0200
0200
0200
ENDCHAR
STARTCHAR itilde
ENCODING 297
SWIDTH 132 0
DWIDTH 2 0
BBX 6 13 -2 0
BITMAP
1410
9970
42D0
0000
0500
0500
0500
0500
0500
0500
0500
0500
0500
ENDCHAR
STARTCHAR imacron
ENCODING 299
SWIDTH 132 0
DWIDTH 2 0
BBX 6 12 -2 0
BITMAP
5AA0
5400
0000
0500
0500
0500
0500
0500
0500
0500
0500
0500
ENDCHAR
STARTCHAR Ibreve
ENCODING 300
SWIDTH 153 0
DWIDTH 2 0
BBX 5 16 -1 0
BITMAP
4140
2A00
0400
0000
0800
0800
0800
0800
0800
0800
0800
0800
0800
0800
0800
0800
ENDCHAR
STARTCHAR ibreve
ENCODING 301
SWIDTH 132 0
DWIDTH 2 0
BBX 4 13 -1 0
BITMAP
41
67
18
00
14
14
14
14
14
14
14
14
14
ENDCHAR
STARTCHAR Iogonek
ENCODING 302
SWIDTH 153 0
DWIDTH 2 0
BBX 4 15 0 -3
BITMAP
20
20
20
20
20
20
20
20
20
20
20
30
90
81
7E
ENDCHAR
STARTCHAR iogonek
ENCODING 303
SWIDTH 132 0
DWIDTH 2 0
BBX 5 16 -1 -4
BITMAP
1000
0000
0000
1400
1400
1400
1400
1400
1400
1400
1400
1400
2000
5000
6640
1900
ENDCHAR
STARTCHAR Idotaccent
ENCODING 304
SWIDTH 153 0
DWIDTH 2 0
BBX 2 14 0 0
BITMAP
60
00
50
60
20
20
20
20
20
20
20
20
20
20
ENDCHAR
STARTCHAR dotlessi
ENCODING 305
SWIDTH 132 0
DWIDTH 2 0
BBX 2 9 0 0
BITMAP
50
50
50
50
50
50
50
50
50
ENDCHAR
STARTCHAR Jcircumflex
ENCODING 308
SWIDTH 371 0
DWIDTH 6 0
BBX 7 17 0 -1
BITMAP
0200
0580
0820
2418
1000
0180
0080
0080
00C0
0080
0090
0090
0050
0050
4050
6090
1A80
ENDCHAR
STARTCHAR jcircumflex
ENCODING 309
SWIDTH 112 0
DWIDTH 2 0
BBX 7 21 -3 -6
BITMAP
0200
0980
0860
2418
1000
0000
0000
0240
0240
0240
0240
0140
0140
0180
0180
0180
0080
0180
9140
2700
0500
ENDCHAR
STARTCHAR Kcommaaccent
ENCODING 310
SWIDTH 524 0
DWIDTH 8 0
BBX 8 16 0 -5
BITMAP
5000
5020
6090
2180
2200
2900
2800
2800
2EAA
1400
1400
0000
0040
0180
0180
0140
ENDCHAR
STARTCHAR kcommaaccent
ENCODING 311
SWIDTH 428 0
DWIDTH 7 0
BBX 7 17 0 -5
BITMAP
2000
6000
6000
6034
60A0
61D0
6340
6A00
7800
7400
9690
9064
4000
0100
0700
0200
0200
ENDCHAR
STARTCHAR Lacute
ENCODING 313
SWIDTH 537 0
DWIDTH 9 0
BBX 9 12 0 0
BITMAP
001000
00D000
604000
600000
600000
600000
600000
600000
600140
602900
769000
790000
ENDCHAR
STARTCHAR lacute
ENCODING 314
SWIDTH 137 0
DWIDTH 2 0
BBX 2 18 0 0
BITMAP
10
60
40
00
40
90
50
50
50
50
20
20
20
20
20
20
60
10
ENDCHAR
STARTCHAR Lcommaaccent
ENCODING 315
SWIDTH 537 0
DWIDTH 9 0
BBX 9 15 0 -5
BITMAP
600000
600000
600000
600000
600000
600000
600140
602900
769000
790000
000000
004000
018000
018000
014000
ENDCHAR
STARTCHAR lcommaaccent
ENCODING 316
SWIDTH 137 0
DWIDTH 2 0
BBX 2 19 0 -5
BITMAP
40
90
50
50
50
50
20
20
20
20
20
20
60
10
00
10
60
50
50
ENDCHAR
STARTCHAR Lcaron
ENCODING 317
SWIDTH 537 0
DWIDTH 9 0
BBX 9 15 0 0
BITMAP
201000
149000
0A4000
000000
000000
600000
600000
600000
600000
600000
600000
600140
602900
769000
790000
ENDCHAR
STARTCHAR Ldot
ENCODING 319
SWIDTH 537 0
DWIDTH 9 0
BBX 9 10 0 0
BITMAP
600000
600000
600000
600000
600000
604000
604140
602900
769000
790000
ENDCHAR
STARTCHAR ldot
ENCODING 320
SWIDTH 267 0
DWIDTH 4 0
BBX 4 14 0 0
BITMAP
40
90
50
50
50
50
20
20
20
21
25
20
60
10
ENDCHAR
STARTCHAR Lslash
ENCODING 321
SWIDTH 537 0
DWIDTH 9 0
BBX 10 10 -1 0
BITMAP
180000
180000
180000
180000
181000
1EE000
6D0050
180A40
1DA400
1E4000
ENDCHAR
STARTCHAR lslash
ENCODING 322
SWIDTH 137 0
DWIDTH 2 0
BBX 6 14 -2 0
BITMAP
0400
0900
0500
0500
0500
0500
0200
0200
0200
07E0
6A00
0200
0600
0100
ENDCHAR
STARTCHAR Nacute
ENCODING 323
SWIDTH 541 0
DWIDTH 9 0
BBX 8 14 0 0
BITMAP
0040
0240
0109
0005
6005
7806
6906
2306
2186
2066
202A
200A
2407
1400
ENDCHAR
STARTCHAR nacute
ENCODING 324
SWIDTH 483 0
DWIDTH 8 0
BBX 7 12 0 0
BITMAP
0040
0280
0110
91F4
5248
6608
690C
680C
7808
3808
3408
3004
ENDCHAR
STARTCHAR Ncommaaccent
ENCODING 325
SWIDTH 541 0
DWIDTH 9 0
BBX 8 17 0 -5
BITMAP
0009
0005
6005
7806
6906
2306
2186
2066
202A
200A
2407
1400
0000
0040
0180
0180
0140
ENDCHAR
STARTCHAR ncommaaccent
ENCODING 326
SWIDTH 483 0
DWIDTH 8 0
BBX 7 15 0 -5
BITMAP
0010
91F4
5248
6608
690C
680C
7808
3808
3408
3004
0000
0100
0240
0240
0200
ENDCHAR
STARTCHAR Ncaron
ENCODING 327
SWIDTH 541 0
DWIDTH 9 0
BBX 8 15 0 0
BITMAP
1404
0820
0280
0009
0005
6005
7806
6906
2306
2186
2066
202A
200A
2407
1400
ENDCHAR
STARTCHAR ncaron
ENCODING 328
SWIDTH 483 0
DWIDTH 8 0
BBX 7 13 0 0
BITMAP
1014
0860
0640
0010
91F4
5248
6608
690C
680C
7808
3808
3408
3004
ENDCHAR
STARTCHAR napostrophe
ENCODING 329
SWIDTH 483 0
DWIDTH 8 0
BBX 7 14 0 0
BITMAP
0400
0C00
0C00
0800
0010
91F4
5248
6608
690C
680C
7808
3808
3408
3004
ENDCHAR
STARTCHAR Omacron
ENCODING 332
SWIDTH 382 0
DWIDTH 6 0
BBX 7 13 0 0
BITMAP
16A8
1400
0640
1D90
2420
3030
6030
9020
8060
8090
80C0
6240
2D00
ENDCHAR
STARTCHAR omacron
ENCODING 333
SWIDTH 266 0
DWIDTH 4 0
BBX 6 12 -1 0
BITMAP
5AA0
5400
0000
0A00
0940
1480
2480
2480
24C0
2580
2640
1D00
ENDCHAR
STARTCHAR Obreve
ENCODING 334
SWIDTH 382 0
DWIDTH 6 0
BBX 6 14 0 0
BITMAP
1080
1A80
0500
0640
1D90
2420
3030
6030
9020
8060
8090
80C0
6240
2D00
ENDCHAR
STARTCHAR obreve
ENCODING 335
SWIDTH 266 0
DWIDTH 4 0
BBX 5 12 0 0
BITMAP
4140
2A00
0400
2800
2500
5200
9200
9200
9300
9600
9900
7400
ENDCHAR
STARTCHAR Ohungarumlaut
ENCODING 336
SWIDTH 382 0
DWIDTH 6 0
BBX 6 14 0 0
BITMAP
0190
0370
0040
0640
1D90
2420
3030
6030
9020
8060
8090
80C0
6240
2D00
ENDCHAR
STARTCHAR ohungarumlaut
ENCODING 337
SWIDTH 266 0
DWIDTH 4 0
BBX 4 12 0 0
BITMAP
15
36
04
28
25
52
92
92
93
96
99
74
ENDCHAR
STARTCHAR OE
ENCODING 338
SWIDTH 732 0
DWIDTH 12 0
BBX 12 12 0 0
BITMAP
000010
06A290
1DBD00
243000
303000
6030A0
903640
807800
80B409
80E464
626680
2D2900
ENDCHAR
STARTCHAR oe
ENCODING 339
SWIDTH 628 0
DWIDTH 10 0
BBX 10 9 0 0
BITMAP
281900
253680
529240
92E900
93D010
938070
9680D0
998640
746800
ENDCHAR
STARTCHAR Racute
ENCODING 340
SWIDTH 503 0
DWIDTH 8 0
BBX 8 15 0 0
BITMAP
0010
0090
5090
66AD
7406
6018
6090
6A00
7400
7800
5B80
5078
5006
5000
5000
ENDCHAR
STARTCHAR racute
ENCODING 341
SWIDTH 396 0
DWIDTH 6 0
BBX 6 12 0 0
BITMAP
0140
0340
0500
0000
92E0
5A00
5C00
2C00
2800
2800
2800
1800
ENDCHAR
STARTCHAR Rcommaaccent
ENCODING 342
SWIDTH 503 0
DWIDTH 8 0
BBX 8 18 0 -5
BITMAP
5050
66AD
7406
6018
6090
6A00
7400
7800
5B80
5078
5006
5000
5000
0000
0100
0240
0140
0240
ENDCHAR
STARTCHAR rcommaaccent
ENCODING 343
SWIDTH 396 0
DWIDTH 6 0
BBX 6 13 0 -5
BITMAP
92E0
5A00
5C00
2C00
2800
2800
2800
1800
0000
0100
0600
0600
0500
ENDCHAR
STARTCHAR Rcaron
ENCODING 344
SWIDTH 503 0
DWIDTH 8 0
BBX 8 16 0 0
BITMAP
0404
0924
0280
5050
66AD
7406
6018
6090
6A00
7400
7800
5B80
5078
5006
5000
5000
ENDCHAR
STARTCHAR rcaron
ENCODING 345
SWIDTH 396 0
DWIDTH 6 0
BBX 6 13 0 0
BITMAP
5010
2080
0A00
0000
0000
92E0
5A00
5C00
2C00
2800
2800
2800
1800
ENDCHAR
STARTCHAR Sacute
ENCODING 346
SWIDTH 541 0
DWIDTH 9 0
BBX 9 15 0 0
BITMAP
001000
00D000
014000
006400
065400
180000
200000
900000
800000
600000
1AA900
000640
000A00
01A400
090000
ENDCHAR
STARTCHAR sacute
ENCODING 347
SWIDTH 366 0
DWIDTH 6 0
BBX 6 13 0 -1
BITMAP
0100
0700
0400
0000
0A80
2400
6000
9140
7AA0
0050
0280
0A00
0400
ENDCHAR
STARTCHAR Scircumflex
ENCODING 348
SWIDTH 541 0
DWIDTH 9 0
BBX 9 17 0 0
BITMAP
018000
026000
061800
080900
040000
006400
065400
180000
200000
900000
800000
600000
1AA900
000640
000A00
01A400
090000
ENDCHAR
STARTCHAR scircumflex
ENCODING 349
SWIDTH 366 0
DWIDTH 6 0
BBX 6 14 0 -1
BITMAP
0900
1A40
2080
5020
4000
0A80
2400
6000
9140
7AA0
0050
0280
0A00
0400
ENDCHAR
STARTCHAR Scedilla
ENCODING 350
SWIDTH 541 0
DWIDTH 9 0
BBX 9 17 0 -5
BITMAP
006400
065400
180000
200000
900000
800000
600000
1AA900
000640
000A00
01A400
091000
002000
002900
000740
000680
002A00
ENDCHAR
STARTCHAR scedilla
ENCODING 351
SWIDTH 366 0
DWIDTH 6 0
BBX 6 13 0 -5
BITMAP
0A80
2400
6000
9140
7AA0
0050
0280
0A00
0800
0A00
02D0
0070
0790
ENDCHAR
STARTCHAR Scaron
ENCODING 352
SWIDTH 541 0
DWIDTH 9 0
BBX 9 15 0 0
BITMAP
040400
092400
028000
006400
065400
180000
200000
900000
800000
600000
1AA900
000640
000A00
01A400
090000
ENDCHAR
STARTCHAR scaron
ENCODING 353
SWIDTH 366 0
DWIDTH 6 0
BBX 6 13 0 -1
BITMAP
4010
2180
1900
0000
0A80
2400
6000
9140
7AA0
0050
0280
0A00
0400
ENDCHAR
STARTCHAR Tcommaaccent
ENCODING 354
SWIDTH 595 0
DWIDTH 10 0
BBX 11 17 0 -5
BITMAP
001004
05BAA4
A97000
002000
002000
002400
002400
001400
001800
001800
000800
000800
000000
000400
000900
000900
000800
ENDCHAR
STARTCHAR tcommaaccent
ENCODING 355
SWIDTH 268 0
DWIDTH 4 0
BBX 6 17 -1 -5
BITMAP
0C00
0800
0800
0E90
6E40
6800
0800
0C00
0C00
0C00
0C00
0800
0400
0100
0600
0600
0500
ENDCHAR
STARTCHAR Tcaron
ENCODING 356
SWIDTH 595 0
DWIDTH 10 0
BBX 11 16 0 0
BITMAP
014040
008200
002800
000000
001004
05BAA4
A97000
002000
002000
002400
002400
001400
001800
001800
000800
000800
ENDCHAR
STARTCHAR Tbar
ENCODING 358
SWIDTH 595 0
DWIDTH 10 0
BBX 11 12 0 0
BITMAP
001004
05BAA4
A97000
002000
01BF40
012400
002400
001400
001800
001800
000800
000800
ENDCHAR
STARTCHAR Utilde
ENCODING 360
SWIDTH 450 0
DWIDTH 7 0
BBX 7 16 0 -2
BITMAP
0500
3718
11E0
0000
5018
9018
5028
5028
5038
5034
5068
5098
2148
1A08
0008
0004
ENDCHAR
STARTCHAR utilde
ENCODING 361
SWIDTH 387 0
DWIDTH 6 0
BBX 6 12 0 0
BITMAP
1400
9970
43D0
0000
5040
5080
5080
5080
60C0
61D0
2390
2D60
ENDCHAR
STARTCHAR Umacron
ENCODING 362
SWIDTH 450 0
DWIDTH 7 0
BBX 7 14 0 -2
BITMAP
1AA4
1400
5018
9018
5028
5028
5038
5034
5068
5098
2148
1A08
0008
0004
ENDCHAR
STARTCHAR umacron
ENCODING 363
SWIDTH 387 0
DWIDTH 6 0
BBX 6 12 0 0
BITMAP
5AA0
5400
0000
0000
5040
5080
5080
5080
60C0
61D0
2390
2D60
ENDCHAR
STARTCHAR Ubreve
ENCODING 364
SWIDTH 450 0
DWIDTH 7 0
BBX 7 14 0 -2
BITMAP
0420
0AD0
5158
9018
5028
5028
5038
5034
5068
5098
2148
1A08
0008
0004
ENDCHAR
STARTCHAR ubreve
ENCODING 365
SWIDTH 387 0
DWIDTH 6 0
BBX 6 12 0 0
BITMAP
1040
1A80
0100
0000
5040
5080
5080
5080
60C0
61D0
2390
2D60
ENDCHAR
STARTCHAR Uring
ENCODING 366
SWIDTH 450 0
DWIDTH 7 0
BBX 7 15 0 -2
BITMAP
0A80
1890
0A80
5018
9018
5028
5028
5038
5034
5068
5098
2148
1A08
0008
0004
ENDCHAR
STARTCHAR uring
ENCODING 367
SWIDTH 387 0
DWIDTH 6 0
BBX 6 11 0 0
BITMAP
1A40
24C0
1A80
5040
5080
5080
5080
60C0
61D0
2390
2D60
ENDCHAR
STARTCHAR Uhungarumlaut
ENCODING 368
SWIDTH 450 0
DWIDTH 7 0
BBX 7 16 0 -2
BITMAP
0200
09D0
0540
0000
5018
9018
5028
5028
5038
5034
5068
5098
2148
1A08
0008
0004
ENDCHAR
STARTCHAR uhungarumlaut
ENCODING 369
SWIDTH 387 0
DWIDTH 6 0
BBX 6 11 0 0
BITMAP
0840
2A40
1100
5040
5080
5080
5080
60C0
61D0
2390
2D60
ENDCHAR
STARTCHAR Uogonek
ENCODING 370
SWIDTH 450 0
DWIDTH 7 0
BBX 9 15 0 -5
BITMAP
501800
901800
502800
502800
503800
503400
506800
509800
214800
1A0800
001C00
002400
005000
006B40
001400
ENDCHAR
STARTCHAR uogonek
ENCODING 371
SWIDTH 387 0
DWIDTH 6 0
BBX 7 12 0 -4
BITMAP
5040
5080
5080
5080
60C0
61D0
2390
2D60
0190
0240
0258
00A4
ENDCHAR
STARTCHAR Wcircumflex
ENCODING 372
SWIDTH 878 0
DWIDTH 14 0
BBX 14 17 0 0
BITMAP
00090000
001A0000
00208000
00506000
00400000
00000050
00000090
50070080
60074080
30098140
2408C240
18149200
0C206200
0D202600
0A501D00
07900800
02C00000
ENDCHAR
STARTCHAR wcircumflex
ENCODING 373
SWIDTH 566 0
DWIDTH 9 0
BBX 9 15 0 0
BITMAP
018000
026000
052400
080900
000000
000000
000000
518240
629240
226240
161A40
0F0A40
0B0740
070240
020000
ENDCHAR
STARTCHAR Ycircumflex
ENCODING 374
SWIDTH 483 0
DWIDTH 8 0
BBX 8 17 0 0
BITMAP
0200
0580
0860
2418
1000
0005
0008
9008
3014
1820
0A20
02D0
00C0
0180
0140
0200
0200
ENDCHAR
STARTCHAR ycircumflex
ENCODING 375
SWIDTH 363 0
DWIDTH 6 0
BBX 6 21 0 -6
BITMAP
0800
1600
2080
9060
4000
0000
0000
0050
A050
3050
1850
0990
0390
01D0
00D0
0090
0080
0080
0080
0080
0080
ENDCHAR
STARTCHAR Ydieresis
ENCODING 376
SWIDTH 483 0
DWIDTH 8 0
BBX 8 12 0 0
BITMAP
0955
0008
9008
3014
1820
0A20
02D0
00C0
0180
0140
0200
0200
ENDCHAR
STARTCHAR Zacute
ENCODING 377
SWIDTH 670 0
DWIDTH 11 0
BBX 11 15 0 0
BITMAP
001000
006000
004000
000000
6AAB80
000340
000A00
001800
007000
00D000
024000
0A0000
180000
755550
BFEAA4
ENDCHAR
STARTCHAR zacute
ENCODING 378
SWIDTH 618 0
DWIDTH 10 0
BBX 10 12 0 0
BITMAP
001000
007000
004000
000000
01B400
6A7000
106000
00C000
018000
020000
061AF0
07A500
ENDCHAR
STARTCHAR Zdotaccent
ENCODING 379
SWIDTH 670 0
DWIDTH 11 0
BBX 11 13 0 0
BITMAP
002000
000000
6AAB80
000340
000A00
001800
007000
00D000
024000
0A0000
180000
755550
BFEAA4
ENDCHAR
STARTCHAR zdotaccent
ENCODING 380
SWIDTH 618 0
DWIDTH 10 0
BBX 10 10 0 0
BITMAP
005000
000000
01B400
6A7000
106000
00C000
018000
020000
061AF0
07A500
ENDCHAR
STARTCHAR Zcaron
ENCODING 381
SWIDTH 670 0
DWIDTH 11 0
BBX 11 15 0 0
BITMAP
020100
018500
006400
000000
6AAB80
000340
000A00
001800
007000
00D000
024000
0A0000
180000
755550
BFEAA4
ENDCHAR
STARTCHAR zcaron
ENCODING 382
SWIDTH 618 0
DWIDTH 10 0
BBX 10 12 0 0
BITMAP
040400
052400
029000
000000
01B400
6A7000
106000
00C000
018000
020000
061AF0
07A500
ENDCHAR
STARTCHAR florin
ENCODING 402
SWIDTH 345 0
DWIDTH 6 0
BBX 6 18 0 -4
BITMAP
0F00
1D40
1800
1800
2400
2400
2AD0
2900
6400
1400
1800
1800
1800
1800
1800
1C00
1C00
B800
ENDCHAR
STARTCHAR AEacute
ENCODING 508
SWIDTH 708 0
DWIDTH 11 0
BBX 11 16 0 0
BITMAP
001000
009000
004000
000000
184060
2CAB40
297400
226000
326010
31A180
20F900
62F000
79B018
607090
503A40
402400
ENDCHAR
STARTCHAR aeacute
ENCODING 509
SWIDTH 705 0
DWIDTH 11 0
BBX 11 12 0 0
BITMAP
000400
002800
001000
024780
0AD860
18E580
35FD00
62E008
96A028
8C6060
A47680
601500
ENDCHAR
STARTCHAR Oslashacute
ENCODING 510
SWIDTH 382 0
DWIDTH 6 0
BBX 6 16 0 -1
BITMAP
0040
0240
0100
0000
06C0
1DD0
25A0
3230
6230
9520
8960
8890
98C0
7640
3D00
2000
ENDCHAR
STARTCHAR oslashacute
ENCODING 511
SWIDTH 266 0
DWIDTH 4 0
BBX 4 14 0 -1
BITMAP
05
0C
14
00
2A
2A
56
9A
9A
A7
A6
A9
B4
80
ENDCHAR
STARTCHAR Scommaaccent
ENCODING 536
SWIDTH 541 0
DWIDTH 9 0
BBX 9 17 0 -5
BITMAP
006400
065400
180000
200000
900000
800000
600000
1AA900
000640
000A00
01A400
090000
000000
004000
018000
018000
014000
ENDCHAR
STARTCHAR scommaaccent
ENCODING 537
SWIDTH 366 0
DWIDTH 6 0
BBX 6 13 0 -5
BITMAP
0A80
2400
6000
9140
7AA0
0050
0280
0A00
0400
0400
0900
0900
0800
ENDCHAR
STARTCHAR circumflex
ENCODING 710
SWIDTH 390 0
DWIDTH 6 0
BBX 6 5 0 10
BITMAP
0900
1A40
2080
5020
4000
ENDCHAR
STARTCHAR caron
ENCODING 711
SWIDTH 390 0
DWIDTH 6 0
BBX 5 3 1 10
BITMAP
4040
5240
2900
ENDCHAR
STARTCHAR breve
ENCODING 728
SWIDTH 390 0
DWIDTH 6 0
BBX 4 3 1 9
BITMAP
42
6A
14
ENDCHAR
STARTCHAR dotaccent
ENCODING 729
SWIDTH 128 0
DWIDTH 2 0
BBX 2 1 0 9
BITMAP
50
ENDCHAR
STARTCHAR ring
ENCODING 730
SWIDTH 266 0
DWIDTH 4 0
BBX 4 3 0 8
BITMAP
29
93
6A
ENDCHAR
STARTCHAR ogonek
ENCODING 731
SWIDTH 366 0
DWIDTH 6 0
BBX 4 4 1 -4
BITMAP
24
60
51
2E
ENDCHAR
STARTCHAR tilde
ENCODING 732
SWIDTH 458 0
DWIDTH 7 0
BBX 7 3 0 9
BITMAP
0400
2724
52E0
ENDCHAR
STARTCHAR hungarumlaut
ENCODING 733
SWIDTH 239 0
DWIDTH 4 0
BBX 4 3 0 7
BITMAP
21
A9
44
ENDCHAR
STARTCHAR Wgrave
ENCODING 7808
SWIDTH 878 0
DWIDTH 14 0
BBX 14 16 0 0
BITMAP
00040000
00060000
00010000
00000000
00000050
00000090
50070080
60074080
30098140
2408C240
18149200
0C206200
0D202600
0A501D00
07900800
02C00000
ENDCHAR
STARTCHAR wgrave
ENCODING 7809
SWIDTH 566 0
DWIDTH 9 0
BBX 9 12 0 0
BITMAP
010000
018000
004000
000000
518240
629240
226240
161A40
0F0A40
0B0740
070240
020000
ENDCHAR
STARTCHAR Wacute
ENCODING 7810
SWIDTH 878 0
DWIDTH 14 0
BBX 14 15 0 0
BITMAP
00010000
000D0000
00140000
00000050
00000090
50070080
60074080
30098140
2408C240
18149200
0C206200
0D202600
0A501D00
07900800
02C00000
ENDCHAR
STARTCHAR wacute
ENCODING 7811
SWIDTH 566 0
DWIDTH 9 0
BBX 9 12 0 0
BITMAP
001000
009000
004000
000000
518240
629240
226240
161A40
0F0A40
0B0740
070240
020000
ENDCHAR
STARTCHAR Wdieresis
ENCODING 7812
SWIDTH 878 0
DWIDTH 14 0
BBX 14 13 0 0
BITMAP
00198000
00000050
00000090
50070080
60074080
30098140
2408C240
18149200
0C206200
0D202600
0A501D00
07900800
02C00000
ENDCHAR
STARTCHAR wdieresis
ENCODING 7813
SWIDTH 566 0
DWIDTH 9 0
BBX 9 12 0 0
BITMAP
022000
000000
000000
000000
518240
629240
226240
161A40
0F0A40
0B0740
070240
020000
ENDCHAR
STARTCHAR Ygrave
ENCODING 7922
SWIDTH 483 0
DWIDTH 8 0
BBX 8 16 0 0
BITMAP
0200
0240
0040
0000
0005
0008
9008
3014
1820
0A20
02D0
00C0
0180
0140
0200
0200
ENDCHAR
STARTCHAR ygrave
ENCODING 7923
SWIDTH 363 0
DWIDTH 6 0
BBX 6 18 0 -6
BITMAP
0400
0900
0100
0000
0050
A050
3050
1850
0990
0390
01D0
00D0
0090
0080
0080
0080
0080
0080
ENDCHAR
STARTCHAR endash
ENCODING 8211
SWIDTH 399 0
DWIDTH 6 0
BBX 6 2 0 3
BITMAP
02E0
6900
ENDCHAR
STARTCHAR emdash
ENCODING 8212
SWIDTH 549 0
DWIDTH 9 0
BBX 8 2 0 3
BITMAP
006A
6A50
ENDCHAR
STARTCHAR quoteleft
ENCODING 8216
SWIDTH 155 0
DWIDTH 2 0
BBX 2 5 0 5
BITMAP
50
60
60
20
10
ENDCHAR
STARTCHAR quoteright
ENCODING 8217
SWIDTH 155 0
DWIDTH 2 0
BBX 2 5 0 5
BITMAP
50
60
60
20
10
ENDCHAR
STARTCHAR quotesinglbase
ENCODING 8218
SWIDTH 155 0
DWIDTH 2 0
BBX 2 5 0 0
BITMAP
10
60
60
20
20
ENDCHAR
STARTCHAR quotedblleft
ENCODING 8220
SWIDTH 212 0
DWIDTH 3 0
BBX 3 5 0 8
BITMAP
44
58
58
58
14
ENDCHAR
STARTCHAR quotedblright
ENCODING 8221
SWIDTH 212 0
DWIDTH 3 0
BBX 3 5 0 8
BITMAP
44
58
58
58
14
ENDCHAR
STARTCHAR quotedblbase
ENCODING 8222
SWIDTH 212 0
DWIDTH 3 0
BBX 3 5 0 0
BITMAP
40
58
58
58
14
ENDCHAR
STARTCHAR dagger
ENCODING 8224
SWIDTH 268 0
DWIDTH 4 0
BBX 6 13 -1 -1
BITMAP
0C00
0800
0800
0E90
6E40
6800
0800
0C00
0C00
0C00
0C00
0800
0400
ENDCHAR
STARTCHAR daggerdbl
ENCODING 8225
SWIDTH 326 0
DWIDTH 5 0
BBX 5 13 0 -1
BITMAP
1800
1800
1800
1A80
7E00
A840
2E40
6800
1800
1800
0800
0800
0400
ENDCHAR
STARTCHAR bullet
ENCODING 8226
SWIDTH 189 0
DWIDTH 3 0
BBX 3 3 0 3
BITMAP
24
74
10
ENDCHAR
STARTCHAR ellipsis
ENCODING 8230
SWIDTH 387 0
DWIDTH 6 0
BBX 6 1 0 0
BITMAP
5660
ENDCHAR
STARTCHAR guilsinglleft
ENCODING 8249
SWIDTH 409 0
DWIDTH 7 0
BBX 6 8 1 2
BITMAP
0090
0280
1D00
6000
C000
7400
0A40
0180
ENDCHAR
STARTCHAR guilsinglright
ENCODING 8250
SWIDTH 450 0
DWIDTH 7 0
BBX 5 9 1 2
BITMAP
4000
A400
1A00
01C0
0080
0240
1D00
7400
8000
ENDCHAR
STARTCHAR fraction
ENCODING 8260
SWIDTH 306 0
DWIDTH 5 0
BBX 5 12 0 -1
BITMAP
0140
0200
0200
0500
0800
0800
1400
2000
2000
5000
9000
8000
ENDCHAR
STARTCHAR Euro
ENCODING 8364
SWIDTH 589 0
DWIDTH 9 0
BBX 9 12 0 0
BITMAP
002400
009900
014000
020000
060000
1A9000
6D0000
09A400
6D4000
480080
080640
07B900
ENDCHAR
STARTCHAR trademark
ENCODING 8482
SWIDTH 1278 0
DWIDTH 20 0
BBX 20 12 0 0
BITMAP
00100E0018
05BAAE4028
A970088028
0020089058
0020052088
0024052488
0024050948
0014050B05
0018060105
0018060006
0008060006
0008060002
ENDCHAR
STARTCHAR minus
ENCODING 8722
SWIDTH 358 0
DWIDTH 6 0
BBX 6 2 0 4
BITMAP
0040
6A90
ENDCHAR
STARTCHAR commaaccent
ENCODING 63171
SWIDTH 450 0
DWIDTH 7 0
BBX 2 4 2 -5
BITMAP
10
70
20
20
ENDCHAR
STARTCHAR fi
ENCODING 64257
SWIDTH 409 0
DWIDTH 7 0
BBX 6 14 0 0
BITMAP
0F00
1D40
1850
1800
2400
2460
2AE0
2960
6460
1460
1820
1820
0820
0820
ENDCHAR
STARTCHAR fl
ENCODING 64258
SWIDTH 416 0
DWIDTH 7 0
BBX 6 14 0 0
BITMAP
0F40
1D90
1860
1820
2420
2420
2AE0
2920
6420
1420
1820
1820
0830
0830
ENDCHAR
STARTCHAR .notdef
ENCODING -1
SWIDTH 450 0
DWIDTH 7 0
BBX 1 1 0 0
BITMAP
00
ENDCHAR
STARTCHAR .null
ENCODING -1
SWIDTH 0 0
DWIDTH 0 0
BBX 1 1 0 0
BITMAP
00
ENDCHAR
STARTCHAR nonmarkingreturn
ENCODING -1
SWIDTH 450 0
DWIDTH 7 0
BBX 1 1 0 0
BITMAP
00
ENDCHAR
ENDFONT
